# xmcd CD database file
#
# Track frame offsets:
#	150
#	11040
#	22582
#	33387
#	67365
#	76967
#	88292
#	99650
#	111295
#	122450
#	135167
#	165025
#	178450
#	191465
#	207267
#
# Disc length: 2931 seconds
#
# Revision: 2
# Processed by: cddbd v1.5.2PL0 Copyright (c) Steve Scherf et al.
# Submitted via: jetAudio 5
#
DISCID=bf0b710f
DTITLE=Charly Pride - Christal Chandeliers
DYEAR=1997
DGENRE=Country
TTITLE0=Mississippi Cotton Picking Delta Town
TTITLE1=My Eyes Can Only See As Far As You
TTITLE2=Oklahoma Morning
TTITLE3=Medley
TTITLE4=Kiss An Angel Good Mirnin'
TTITLE5=The Happynes Of Having You
TTITLE6=It'S Gonna Take A Little Bit Longer
TTITLE7=Shutters And Boards
TTITLE8=Lousiana Man
TTITLE9=Christal Chandeliers
TTITLE10=Medley
TTITLE11=Afraid Of Losing You Again
TTITLE12=Kwa-Liga
TTITLE13=Let Me Live In The Light
TTITLE14=Help Me Make It Through The Night
EXTD=
EXTT0=
EXTT1=
EXTT2=
EXTT3=
EXTT4=
EXTT5=
EXTT6=
EXTT7=
EXTT8=
EXTT9=
EXTT10=
EXTT11=
EXTT12=
EXTT13=
EXTT14=
PLAYORDER=
